<?xml version="1.0" encoding="iso-8859-1"?>
<!-- Generator: Adobe Illustrator 29.1.0, SVG Export Plug-In . SVG Version: 9.03 Build 55587)  -->
<svg version="1.1" id="Capa_1" xmlns="http://www.w3.org/2000/svg" xmlns:xlink="http://www.w3.org/1999/xlink" x="0px" y="0px"
	 viewBox="0 0 512 512" style="enable-background:new 0 0 512 512;" xml:space="preserve">
<g>
	<g>
		<path style="fill:#33CCCC;" d="M170.024,121.757l15.346,15.346c2.148,2.148,4.963,3.222,7.778,3.222s5.63-1.074,7.778-3.222
			c4.296-4.296,4.296-11.261,0-15.557l-15.346-15.346l15.346-15.346c4.296-4.296,4.296-11.261,0-15.557
			c-4.297-4.296-11.26-4.296-15.557,0l-15.346,15.346l-15.346-15.346c-4.297-4.296-11.26-4.296-15.557,0
			c-4.296,4.296-4.296,11.261,0,15.557l15.346,15.346l-15.346,15.346c-4.296,4.296-4.296,11.261,0,15.557
			c2.148,2.148,4.963,3.222,7.778,3.222s5.63-1.074,7.778-3.222L170.024,121.757z"/>
		<path style="fill:#33CCCC;" d="M357.237,106.201l15.346-15.346c4.296-4.296,4.296-11.261,0-15.557
			c-4.297-4.296-11.26-4.296-15.557,0l-15.346,15.346l-15.346-15.346c-4.297-4.296-11.26-4.296-15.557,0
			c-4.296,4.296-4.296,11.261,0,15.557l15.346,15.346l-15.346,15.346c-4.296,4.296-4.296,11.261,0,15.557
			c2.148,2.148,4.963,3.222,7.778,3.222s5.63-1.074,7.778-3.222l15.346-15.346l15.346,15.346c2.148,2.148,4.963,3.222,7.778,3.222
			s5.63-1.074,7.778-3.222c4.296-4.296,4.296-11.261,0-15.557L357.237,106.201z"/>
		<path style="fill:#33CCCC;" d="M150.33,225.4c-4.296,4.296-4.296,11.261,0,15.557c4.297,4.296,11.26,4.296,15.557,0
			c49.607-49.607,130.324-49.607,179.932,0c2.148,2.148,4.963,3.222,7.778,3.222s5.63-1.074,7.778-3.222
			c4.296-4.296,4.296-11.261,0-15.557C303.189,167.216,208.516,167.216,150.33,225.4z"/>
	</g>
	<path d="M455.322,12.17H56.678C25.426,12.17,0,37.596,0,68.848v261.61c0,31.252,25.426,56.678,56.678,56.678h140.89l-21.182,90.694
		H141.18c-6.075,0-11,4.925-11,11s4.925,11,11,11H370.82c6.075,0,11-4.925,11-11s-4.925-11-11-11h-35.206l-21.182-90.694h140.89
		c31.252,0,56.678-25.426,56.678-56.678V68.848C512,37.596,486.574,12.17,455.322,12.17z M56.678,34.17h398.645
		C474.443,34.17,490,49.727,490,68.848v213.237H22V68.848C22,49.727,37.557,34.17,56.678,34.17z M313.022,477.83H198.978
		l21.182-90.694h71.681L313.022,477.83z M455.322,365.136H56.678C37.557,365.136,22,349.58,22,330.458v-26.373h468v26.373
		C490,349.58,474.443,365.136,455.322,365.136z"/>
</g>
<g>
</g>
<g>
</g>
<g>
</g>
<g>
</g>
<g>
</g>
<g>
</g>
<g>
</g>
<g>
</g>
<g>
</g>
<g>
</g>
<g>
</g>
<g>
</g>
<g>
</g>
<g>
</g>
<g>
</g>
</svg>
