<?xml version="1.0" encoding="iso-8859-1"?>
<!-- Generator: Adobe Illustrator 29.1.0, SVG Export Plug-In . SVG Version: 9.03 Build 55587)  -->
<svg version="1.1" id="Capa_1" xmlns="http://www.w3.org/2000/svg" xmlns:xlink="http://www.w3.org/1999/xlink" x="0px" y="0px"
	 viewBox="0 0 512 512" style="enable-background:new 0 0 512 512;" xml:space="preserve">
<g>
	<g>
		<path style="fill:#33CCCC;" d="M190,108.228c-6.075,0-11,4.925-11,11v33h-22v-33c0-6.075-4.925-11-11-11s-11,4.925-11,11v44
			c0,6.075,4.925,11,11,11h33v33c0,6.075,4.925,11,11,11s11-4.925,11-11v-88C201,113.153,196.075,108.228,190,108.228z"/>
		<path style="fill:#33CCCC;" d="M256,108.228c-18.196,0-33,14.804-33,33v44c0,18.196,14.804,33,33,33s33-14.804,33-33v-44
			C289,123.032,274.196,108.228,256,108.228z M267,185.228c0,6.065-4.935,11-11,11s-11-4.935-11-11v-44c0-6.065,4.935-11,11-11
			s11,4.935,11,11V185.228z"/>
		<path style="fill:#33CCCC;" d="M366,108.228c-6.075,0-11,4.925-11,11v33h-22v-33c0-6.075-4.925-11-11-11s-11,4.925-11,11v44
			c0,6.075,4.925,11,11,11h33v33c0,6.075,4.925,11,11,11s11-4.925,11-11v-88C377,113.153,372.075,108.228,366,108.228z"/>
		<path style="fill:#33CCCC;" d="M450.312,155.45l-34.533-34.533c-4.297-4.296-11.26-4.296-15.557,0
			c-4.296,4.296-4.296,11.261,0,15.557l26.755,26.755l-26.755,26.755c-4.296,4.296-4.296,11.261,0,15.557
			c2.148,2.148,4.963,3.222,7.778,3.222s5.63-1.074,7.778-3.222l34.533-34.533C454.607,166.71,454.607,159.746,450.312,155.45z"/>
		<path style="fill:#33CCCC;" d="M111.778,120.917c-4.297-4.296-11.26-4.296-15.557,0L61.688,155.45
			c-4.296,4.296-4.296,11.261,0,15.557l34.533,34.533c2.148,2.148,4.963,3.222,7.778,3.222s5.63-1.074,7.778-3.222
			c4.296-4.296,4.296-11.261,0-15.557l-26.755-26.755l26.755-26.755C116.074,132.177,116.074,125.212,111.778,120.917z"/>
	</g>
	<path d="M471,19.515H41c-22.607,0-41,18.393-41,41v271.426c0,22.607,18.393,41,41,41h164.308l-22.086,53.544h-58.725
		c-6.075,0-11,4.925-11,11v44c0,6.075,4.925,11,11,11h263.008c6.075,0,11-4.925,11-11v-44c0-6.075-4.925-11-11-11h-58.725
		l-22.086-53.544H471c22.607,0,41-18.393,41-41V60.515C512,37.908,493.607,19.515,471,19.515z M376.504,470.485H135.496v-22h241.008
		V470.485z M207.02,426.485l22.072-53.511h53.816l22.072,53.511H207.02z M41,41.515h430c10.477,0,19,8.523,19,19v224.426H22V60.515
		C22,50.039,30.523,41.515,41,41.515z M471,350.941H41c-10.477,0-19-8.523-19-19v-25h468v25
		C490,342.417,481.477,350.941,471,350.941z"/>
</g>
<g>
</g>
<g>
</g>
<g>
</g>
<g>
</g>
<g>
</g>
<g>
</g>
<g>
</g>
<g>
</g>
<g>
</g>
<g>
</g>
<g>
</g>
<g>
</g>
<g>
</g>
<g>
</g>
<g>
</g>
</svg>
